<?xml version="1.0" encoding="UTF-8"?>
<svg id="Layer_1" data-name="Layer 1" xmlns="http://www.w3.org/2000/svg" viewBox="0 0 531.51 175.31">
  <defs>
    <style>
      .cls-1 {
        fill: #10182a;
      }

      .cls-2 {
        fill: #fff;
      }

      .cls-3 {
        fill: #c8a34c;
      }
    </style>
  </defs>
  <g>
    <g>
      <path class="cls-2" d="M215.52,55.86l-20.7,64.57h16.45l4.56-14.95h25.78l4.68,14.95h16.98l-21.4-64.57h-26.36ZM219.94,92.04l6.99-22.91h3.31l7.18,22.91h-17.47Z"/>
      <path class="cls-2" d="M285.13,71.07c0-1.42.38-2.51,1.15-3.27s1.86-1.15,3.27-1.15h6.63v-11.85h-6.28c-6.49,0-11.38,1.4-14.68,4.2-3.3,2.8-4.95,7.06-4.95,12.78v.88h-5.48v11.67h5.48v36.09h14.86v-36.09h11.76v-11.67h-11.76v-1.59Z"/>
      <path class="cls-2" d="M321.57,58.87h-14.86l-.03,12.74h-7.14v11.68h7.11l-.04,17.25c0,5.13.71,9.2,2.12,12.21s3.7,5.16,6.85,6.46c3.15,1.3,7.39,1.95,12.69,1.95h6.63v-13.44h-6.72c-2.18,0-3.85-.58-5-1.73-1.15-1.15-1.72-2.81-1.72-5l.04-17.69h13.41v-11.68h-13.38l.03-12.74Z"/>
      <path class="cls-2" d="M375.3,72.93c-3.51-1.47-7.77-2.21-12.78-2.21-1.77,0-3.7.03-5.79.09-2.09.06-4.11.15-6.06.27-1.95.12-3.63.24-5.04.35v13.44c2-.12,4.22-.23,6.63-.35,2.42-.12,4.72-.21,6.9-.27,2.18-.06,3.83-.09,4.95-.09,2.36,0,4.05.55,5.09,1.64,1,1.06,1.51,2.67,1.54,4.82h-7.68c-4.42,0-8.34.53-11.76,1.59-3.42,1.06-6.1,2.73-8.05,5-1.95,2.27-2.92,5.23-2.92,8.89,0,3.24.75,6.03,2.26,8.36,1.5,2.33,3.58,4.11,6.24,5.35s5.69,1.86,9.11,1.86,6.29-.62,8.62-1.86c2.33-1.24,4.16-3.02,5.48-5.35.55-.97,1-2.06,1.37-3.21v9.18h12.74v-29.63c0-4.54-.93-8.28-2.79-11.23-1.86-2.95-4.54-5.16-8.05-6.63ZM369.51,107.51c-.71,1.24-1.61,2.11-2.7,2.61-1.09.5-2.34.75-3.76.75-2.18,0-3.86-.54-5.04-1.64-1.18-1.09-1.77-2.52-1.77-4.29s.59-3.29,1.77-4.38c1.18-1.09,2.86-1.64,5.04-1.64h7.69v3.45c-.12,2.18-.53,3.89-1.24,5.13Z"/>
      <polygon class="cls-2" points="412.9 106.99 433.99 81.6 433.99 71.6 394.36 71.6 394.36 83.81 414.27 83.81 415.27 85.04 394.18 110.43 394.18 120.43 434.52 120.43 434.52 108.22 413.9 108.22 412.9 106.99"/>
      <path class="cls-2" d="M482.06,79.56c-1.86-2.95-4.54-5.16-8.05-6.63-3.51-1.47-7.77-2.21-12.78-2.21-1.77,0-3.7.03-5.79.09-2.09.06-4.11.15-6.06.27-1.95.12-3.63.24-5.04.35v13.44c2-.12,4.22-.23,6.63-.35,2.42-.12,4.72-.21,6.9-.27,2.18-.06,3.83-.09,4.95-.09,2.36,0,4.05.55,5.09,1.64,1,1.06,1.51,2.67,1.54,4.82h-7.68c-4.42,0-8.34.53-11.76,1.59-3.42,1.06-6.1,2.73-8.05,5-1.95,2.27-2.92,5.23-2.92,8.89,0,3.24.75,6.03,2.26,8.36,1.5,2.33,3.58,4.11,6.24,5.35s5.69,1.86,9.11,1.86,6.29-.62,8.62-1.86c2.33-1.24,4.16-3.02,5.48-5.35.55-.97,1-2.06,1.37-3.21v9.18h12.74v-29.63c0-4.54-.93-8.28-2.79-11.23ZM468.22,107.51c-.71,1.24-1.61,2.11-2.7,2.61-1.09.5-2.34.75-3.76.75-2.18,0-3.86-.54-5.04-1.64-1.18-1.09-1.77-2.52-1.77-4.29s.59-3.29,1.77-4.38c1.18-1.09,2.86-1.64,5.04-1.64h7.69v3.45c-.12,2.18-.53,3.89-1.24,5.13Z"/>
    </g>
    <g>
      <path class="cls-3" d="M198.1,142.08v-8.66h-2.87v-.95h6.89v.95h-2.87v8.66h-1.15Z"/>
      <path class="cls-3" d="M202.7,142.08v-6.91h1.04l.08,1.32c.16-.31.35-.58.6-.8.24-.22.54-.39.88-.51.34-.12.73-.18,1.17-.18v1.21h-.42c-.29,0-.57.04-.84.12-.27.08-.5.2-.71.38-.21.17-.37.41-.48.71-.11.3-.17.67-.17,1.1v3.57h-1.15Z"/>
      <path class="cls-3" d="M210.02,142.24c-.56,0-1.02-.1-1.4-.29-.38-.2-.65-.46-.84-.78-.18-.32-.27-.68-.27-1.06,0-.47.12-.86.36-1.19.24-.32.59-.57,1.03-.74.44-.17.97-.25,1.57-.25h1.82c0-.43-.07-.79-.2-1.08-.13-.29-.32-.51-.58-.65-.25-.15-.56-.22-.94-.22-.44,0-.82.11-1.14.33-.32.22-.52.54-.59.97h-1.18c.05-.49.22-.91.5-1.24.28-.33.63-.59,1.06-.77.43-.18.88-.27,1.34-.27.64,0,1.17.12,1.6.35.43.23.74.56.95.97s.32.91.32,1.47v4.28h-1.03l-.07-1.22c-.09.19-.21.37-.35.54-.14.17-.31.32-.5.44-.19.12-.41.22-.65.29-.24.07-.52.11-.83.11ZM210.2,141.27c.32,0,.61-.07.87-.2.26-.13.48-.32.67-.55.18-.23.32-.49.42-.77.1-.28.14-.58.14-.89v-.04h-1.73c-.45,0-.81.05-1.08.16s-.47.25-.59.44-.18.4-.18.64.06.46.17.65c.11.18.28.32.51.42.22.1.49.15.8.15Z"/>
      <path class="cls-3" d="M215.24,142.08v-6.91h1.04l.05,1.21c.22-.43.53-.77.94-1.01.41-.24.87-.36,1.39-.36s1.01.11,1.4.32c.39.21.7.54.92.97.22.43.33.99.33,1.65v4.13h-1.15v-4.01c0-.7-.15-1.22-.46-1.56-.31-.35-.74-.52-1.3-.52-.38,0-.73.09-1.03.28-.3.19-.54.46-.72.81-.18.35-.27.79-.27,1.31v3.69h-1.15Z"/>
      <path class="cls-3" d="M225.72,142.24c-.58,0-1.08-.1-1.5-.29s-.76-.46-1.02-.8c-.25-.34-.4-.75-.46-1.21h1.18c.05.24.14.46.29.66.15.2.35.36.6.49s.56.19.93.19c.32,0,.58-.05.8-.14.21-.1.37-.23.47-.39s.16-.34.16-.54c0-.28-.07-.5-.2-.64-.13-.15-.33-.26-.58-.35-.26-.09-.57-.16-.93-.23-.3-.06-.6-.13-.89-.22-.29-.09-.55-.21-.78-.36s-.41-.34-.54-.56c-.13-.22-.2-.49-.2-.81,0-.39.1-.74.3-1.05.2-.31.49-.55.87-.72.38-.17.82-.26,1.32-.26.74,0,1.34.18,1.8.54.46.36.73.87.81,1.55h-1.14c-.05-.35-.19-.62-.45-.82-.25-.2-.6-.29-1.04-.29s-.76.09-.98.26-.34.4-.34.69c0,.18.06.35.19.49.12.14.31.26.55.36.24.1.54.18.9.25.46.08.87.19,1.25.33s.68.34.91.61c.23.27.35.65.35,1.15,0,.43-.11.81-.32,1.12-.21.32-.52.57-.91.75-.39.18-.86.27-1.39.27Z"/>
      <path class="cls-3" d="M232.25,142.24c-.56,0-1.02-.1-1.4-.29-.38-.2-.65-.46-.84-.78-.18-.32-.27-.68-.27-1.06,0-.47.12-.86.36-1.19.24-.32.59-.57,1.03-.74.44-.17.97-.25,1.57-.25h1.82c0-.43-.07-.79-.2-1.08-.13-.29-.32-.51-.58-.65-.25-.15-.56-.22-.94-.22-.44,0-.82.11-1.14.33-.32.22-.52.54-.59.97h-1.18c.05-.49.22-.91.5-1.24.28-.33.63-.59,1.06-.77.43-.18.88-.27,1.34-.27.64,0,1.17.12,1.6.35.43.23.74.56.95.97s.32.91.32,1.47v4.28h-1.03l-.07-1.22c-.09.19-.21.37-.35.54-.14.17-.31.32-.5.44-.19.12-.41.22-.65.29-.24.07-.52.11-.83.11ZM232.43,141.27c.32,0,.61-.07.87-.2.26-.13.48-.32.67-.55.18-.23.32-.49.42-.77.1-.28.14-.58.14-.89v-.04h-1.73c-.45,0-.81.05-1.08.16s-.47.25-.59.44-.18.4-.18.64.06.46.17.65c.11.18.28.32.51.42.22.1.49.15.8.15Z"/>
      <path class="cls-3" d="M240.57,142.24c-.65,0-1.23-.15-1.75-.45s-.92-.72-1.21-1.27c-.29-.54-.44-1.17-.44-1.89s.15-1.37.44-1.91c.29-.54.7-.97,1.21-1.27s1.1-.45,1.75-.45c.82,0,1.51.21,2.06.64s.9.99,1.04,1.71h-1.18c-.09-.43-.32-.76-.67-1-.36-.24-.78-.36-1.26-.36-.39,0-.76.1-1.1.29-.34.2-.61.49-.81.88-.2.39-.3.88-.3,1.46,0,.43.06.81.18,1.15.12.33.28.61.48.83.2.22.44.39.71.5.27.11.55.17.84.17.32,0,.61-.05.88-.16.27-.11.5-.27.68-.47.18-.21.31-.45.37-.73h1.18c-.15.7-.5,1.26-1.05,1.69-.55.43-1.24.65-2.05.65Z"/>
      <path class="cls-3" d="M247.83,142.08c-.41,0-.77-.06-1.07-.19s-.53-.35-.69-.65c-.16-.31-.24-.72-.24-1.24v-3.85h-1.21v-.97h1.21l.15-1.67h1v1.67h2v.97h-2v3.85c0,.43.09.72.26.87s.48.23.92.23h.74v.99h-1.07Z"/>
      <path class="cls-3" d="M251.18,133.7c-.23,0-.42-.08-.57-.23s-.23-.34-.23-.57.08-.41.23-.56c.15-.14.34-.21.57-.21s.41.07.56.21c.16.14.23.33.23.56s-.08.42-.23.57c-.16.15-.34.23-.56.23ZM250.6,142.08v-6.91h1.15v6.91h-1.15Z"/>
      <path class="cls-3" d="M256.88,142.24c-.65,0-1.23-.15-1.74-.45s-.91-.72-1.21-1.26c-.29-.54-.44-1.18-.44-1.9s.15-1.38.45-1.93c.3-.54.7-.96,1.22-1.26.52-.3,1.1-.45,1.75-.45s1.23.15,1.74.45c.51.3.91.72,1.21,1.25s.45,1.18.45,1.92-.15,1.37-.45,1.91c-.3.54-.71.97-1.22,1.26-.51.3-1.09.45-1.74.45ZM256.88,141.25c.39,0,.76-.1,1.1-.29.34-.2.61-.49.82-.88.21-.39.32-.88.32-1.45s-.1-1.07-.31-1.46c-.21-.39-.48-.68-.81-.88-.33-.2-.7-.29-1.09-.29s-.76.1-1.1.29c-.34.2-.62.49-.82.88-.21.39-.31.88-.31,1.46s.1,1.06.31,1.45c.21.39.48.69.81.88.33.2.7.29,1.09.29Z"/>
      <path class="cls-3" d="M261.92,142.08v-6.91h1.04l.05,1.21c.22-.43.53-.77.94-1.01.41-.24.87-.36,1.39-.36s1.01.11,1.4.32c.39.21.7.54.92.97.22.43.33.99.33,1.65v4.13h-1.15v-4.01c0-.7-.15-1.22-.46-1.56-.31-.35-.74-.52-1.3-.52-.38,0-.73.09-1.03.28-.3.19-.54.46-.72.81-.18.35-.27.79-.27,1.31v3.69h-1.15Z"/>
      <path class="cls-3" d="M277.64,142.24c-.9,0-1.68-.21-2.36-.62s-1.2-.99-1.58-1.74-.56-1.6-.56-2.59.19-1.84.57-2.59c.38-.75.92-1.33,1.62-1.76.7-.42,1.52-.63,2.48-.63,1.08,0,1.98.26,2.7.77.72.52,1.18,1.24,1.39,2.16h-1.33c-.13-.58-.43-1.03-.91-1.37s-1.09-.51-1.85-.51c-.7,0-1.32.16-1.84.47-.53.32-.93.77-1.21,1.35-.28.59-.43,1.28-.43,2.1s.14,1.52.43,2.11c.28.59.68,1.04,1.19,1.35.51.31,1.09.47,1.75.47,1.02,0,1.8-.3,2.32-.91.52-.6.82-1.42.89-2.46h-2.77v-.91h3.95v5.13h-1.06l-.1-1.58c-.23.38-.49.69-.79.95-.3.26-.65.46-1.05.59-.4.13-.88.2-1.44.2Z"/>
      <path class="cls-3" d="M286.94,142.24c-.65,0-1.23-.15-1.74-.45s-.91-.72-1.21-1.26c-.29-.54-.44-1.18-.44-1.9s.15-1.38.45-1.93c.3-.54.7-.96,1.22-1.26.52-.3,1.1-.45,1.75-.45s1.23.15,1.74.45c.51.3.91.72,1.21,1.25s.45,1.18.45,1.92-.15,1.37-.45,1.91c-.3.54-.71.97-1.22,1.26-.51.3-1.09.45-1.74.45ZM286.94,141.25c.39,0,.76-.1,1.1-.29.34-.2.61-.49.82-.88.21-.39.32-.88.32-1.45s-.1-1.07-.31-1.46c-.21-.39-.48-.68-.81-.88-.33-.2-.7-.29-1.09-.29s-.76.1-1.1.29c-.34.2-.62.49-.82.88-.21.39-.31.88-.31,1.46s.1,1.06.31,1.45c.21.39.48.69.81.88.33.2.7.29,1.09.29Z"/>
      <path class="cls-3" d="M293.62,142.08l-2.62-6.91h1.21l2.08,5.8,2.1-5.8h1.18l-2.62,6.91h-1.33Z"/>
      <path class="cls-3" d="M301.55,142.24c-.65,0-1.22-.15-1.72-.45-.5-.3-.89-.72-1.17-1.27-.28-.54-.43-1.18-.43-1.9s.14-1.37.42-1.91c.28-.54.67-.96,1.18-1.26.51-.3,1.09-.45,1.75-.45s1.25.15,1.72.45c.47.3.83.7,1.08,1.19.25.49.38,1.03.38,1.61v.29c0,.1,0,.21-.01.34h-5.65v-.89h4.54c-.03-.63-.24-1.12-.62-1.48-.39-.36-.88-.54-1.46-.54-.39,0-.76.09-1.09.27-.33.18-.6.44-.8.78-.2.34-.3.77-.3,1.28v.38c0,.57.1,1.04.31,1.43.21.38.48.67.81.86.33.19.69.29,1.08.29.48,0,.88-.11,1.2-.32.32-.21.54-.5.68-.87h1.14c-.11.41-.3.78-.58,1.11s-.62.59-1.02.77c-.41.19-.88.28-1.42.28Z"/>
      <path class="cls-3" d="M306.31,142.08v-6.91h1.04l.08,1.32c.16-.31.35-.58.6-.8.24-.22.54-.39.88-.51.34-.12.73-.18,1.17-.18v1.21h-.42c-.29,0-.57.04-.84.12-.27.08-.5.2-.71.38-.21.17-.37.41-.48.71-.11.3-.17.67-.17,1.1v3.57h-1.15Z"/>
      <path class="cls-3" d="M311.38,142.08v-6.91h1.04l.05,1.21c.22-.43.53-.77.94-1.01.41-.24.87-.36,1.39-.36s1.01.11,1.4.32c.39.21.7.54.92.97.22.43.33.99.33,1.65v4.13h-1.15v-4.01c0-.7-.15-1.22-.46-1.56-.31-.35-.74-.52-1.3-.52-.38,0-.73.09-1.03.28-.3.19-.54.46-.72.81-.18.35-.27.79-.27,1.31v3.69h-1.15Z"/>
      <path class="cls-3" d="M321.51,142.24c-.56,0-1.02-.1-1.4-.29-.38-.2-.65-.46-.84-.78-.18-.32-.27-.68-.27-1.06,0-.47.12-.86.36-1.19.24-.32.59-.57,1.03-.74.44-.17.97-.25,1.57-.25h1.82c0-.43-.07-.79-.2-1.08-.13-.29-.32-.51-.58-.65-.25-.15-.56-.22-.94-.22-.44,0-.82.11-1.14.33-.32.22-.52.54-.59.97h-1.18c.05-.49.22-.91.5-1.24.28-.33.63-.59,1.06-.77.43-.18.88-.27,1.34-.27.64,0,1.17.12,1.6.35.43.23.74.56.95.97s.32.91.32,1.47v4.28h-1.03l-.07-1.22c-.09.19-.21.37-.35.54-.14.17-.31.32-.5.44-.19.12-.41.22-.65.29-.24.07-.52.11-.83.11ZM321.69,141.27c.32,0,.61-.07.87-.2.26-.13.48-.32.67-.55.18-.23.32-.49.42-.77.1-.28.14-.58.14-.89v-.04h-1.73c-.45,0-.81.05-1.08.16s-.47.25-.59.44-.18.4-.18.64.06.46.17.65c.11.18.28.32.51.42.22.1.49.15.8.15Z"/>
      <path class="cls-3" d="M326.72,142.08v-6.91h1.04l.05,1.21c.22-.43.53-.77.94-1.01.41-.24.87-.36,1.39-.36s1.01.11,1.4.32c.39.21.7.54.92.97.22.43.33.99.33,1.65v4.13h-1.15v-4.01c0-.7-.15-1.22-.46-1.56-.31-.35-.74-.52-1.3-.52-.38,0-.73.09-1.03.28-.3.19-.54.46-.72.81-.18.35-.27.79-.27,1.31v3.69h-1.15Z"/>
      <path class="cls-3" d="M337.71,142.24c-.65,0-1.23-.15-1.75-.45s-.92-.72-1.21-1.27c-.29-.54-.44-1.17-.44-1.89s.15-1.37.44-1.91c.29-.54.7-.97,1.21-1.27s1.1-.45,1.75-.45c.82,0,1.51.21,2.06.64s.9.99,1.04,1.71h-1.18c-.09-.43-.32-.76-.67-1-.36-.24-.78-.36-1.26-.36-.39,0-.76.1-1.1.29-.34.2-.61.49-.81.88-.2.39-.3.88-.3,1.46,0,.43.06.81.18,1.15.12.33.28.61.48.83.2.22.44.39.71.5.27.11.55.17.84.17.32,0,.61-.05.88-.16.27-.11.5-.27.68-.47.18-.21.31-.45.37-.73h1.18c-.15.7-.5,1.26-1.05,1.69-.55.43-1.24.65-2.05.65Z"/>
      <path class="cls-3" d="M345.47,142.24c-.65,0-1.22-.15-1.72-.45-.5-.3-.89-.72-1.17-1.27-.28-.54-.43-1.18-.43-1.9s.14-1.37.42-1.91c.28-.54.67-.96,1.18-1.26.51-.3,1.09-.45,1.75-.45s1.25.15,1.72.45c.47.3.83.7,1.08,1.19.25.49.38,1.03.38,1.61v.29c0,.1,0,.21-.01.34h-5.65v-.89h4.54c-.03-.63-.24-1.12-.62-1.48-.39-.36-.88-.54-1.46-.54-.39,0-.76.09-1.09.27-.33.18-.6.44-.8.78-.2.34-.3.77-.3,1.28v.38c0,.57.1,1.04.31,1.43.21.38.48.67.81.86.33.19.69.29,1.08.29.48,0,.88-.11,1.2-.32.32-.21.54-.5.68-.87h1.14c-.11.41-.3.78-.58,1.11s-.62.59-1.02.77c-.41.19-.88.28-1.42.28Z"/>
      <path class="cls-3" d="M356.75,142.24c-.65,0-1.22-.12-1.71-.36-.49-.24-.87-.58-1.14-1.02-.27-.44-.4-.96-.4-1.55,0-.46.09-.88.28-1.27.19-.39.47-.73.84-1.03.37-.3.83-.54,1.37-.72l.44-.15.6.75-.52.18c-.63.23-1.1.53-1.41.89-.31.37-.46.8-.46,1.3,0,.38.09.71.27,1.02.18.3.43.54.75.71.32.17.69.26,1.11.26.54,0,1.02-.12,1.43-.35s.84-.61,1.27-1.15c.19-.24.39-.51.59-.83.2-.32.42-.67.64-1.06l.43-.75h1.22l-.62,1.1c-.25.46-.49.87-.73,1.25s-.49.71-.73,1c-.52.63-1.06,1.09-1.63,1.36s-1.2.42-1.9.42ZM361.19,142.08l-5.23-5.32c-.42-.42-.72-.8-.91-1.15-.18-.35-.27-.73-.27-1.15s.1-.78.3-1.1c.2-.32.49-.58.86-.76.37-.18.82-.27,1.34-.27s.94.09,1.31.28c.37.19.66.45.86.77.2.33.3.71.29,1.14h-1.14c0-.41-.13-.72-.39-.94s-.57-.32-.93-.32c-.42,0-.75.11-.99.34s-.36.51-.36.86c0,.29.08.58.25.86.16.28.4.59.71.93l5.76,5.84h-1.45Z"/>
      <path class="cls-3" d="M371.84,142.24c-.93,0-1.74-.21-2.42-.62s-1.21-1-1.57-1.74c-.37-.75-.55-1.61-.55-2.6s.18-1.85.55-2.6c.37-.75.89-1.33,1.57-1.74.68-.42,1.49-.62,2.42-.62,1.1,0,1.99.26,2.67.78.69.52,1.12,1.26,1.32,2.21h-1.28c-.15-.59-.44-1.07-.89-1.43s-1.06-.54-1.82-.54c-.69,0-1.28.16-1.78.47s-.89.77-1.17,1.36c-.27.59-.41,1.3-.41,2.12s.14,1.53.41,2.12c.27.59.66,1.04,1.17,1.36s1.1.47,1.78.47c.77,0,1.38-.18,1.82-.53s.75-.82.89-1.41h1.28c-.19.92-.63,1.65-1.32,2.17-.69.52-1.58.78-2.67.78Z"/>
      <path class="cls-3" d="M380.53,142.24c-.65,0-1.23-.15-1.74-.45s-.91-.72-1.21-1.26c-.29-.54-.44-1.18-.44-1.9s.15-1.38.45-1.93c.3-.54.7-.96,1.22-1.26.52-.3,1.1-.45,1.75-.45s1.23.15,1.74.45c.51.3.91.72,1.21,1.25s.45,1.18.45,1.92-.15,1.37-.45,1.91c-.3.54-.71.97-1.22,1.26-.51.3-1.09.45-1.74.45ZM380.53,141.25c.39,0,.76-.1,1.1-.29.34-.2.61-.49.82-.88.21-.39.32-.88.32-1.45s-.1-1.07-.31-1.46c-.21-.39-.48-.68-.81-.88-.33-.2-.7-.29-1.09-.29s-.76.1-1.1.29c-.34.2-.62.49-.82.88-.21.39-.31.88-.31,1.46s.1,1.06.31,1.45c.21.39.48.69.81.88.33.2.7.29,1.09.29Z"/>
      <path class="cls-3" d="M385.57,142.08v-6.91h1.04l.07.99c.22-.36.51-.64.88-.84.37-.21.78-.31,1.21-.31.36,0,.68.05.97.14.29.1.54.24.76.44.22.2.4.45.54.75.24-.42.56-.75.98-.98.42-.23.86-.35,1.34-.35.53,0,.99.11,1.39.32.4.21.7.54.92.97.21.43.32.99.32,1.65v4.13h-1.14v-4.01c0-.7-.14-1.22-.43-1.56-.28-.35-.68-.52-1.19-.52-.36,0-.68.09-.96.28-.28.19-.51.46-.67.82-.16.36-.25.8-.25,1.32v3.68h-1.15v-4.01c0-.7-.14-1.22-.43-1.56-.28-.35-.69-.52-1.21-.52-.35,0-.66.09-.94.28-.28.19-.5.46-.67.82-.16.36-.25.8-.25,1.32v3.68h-1.15Z"/>
      <path class="cls-3" d="M397.79,142.08v-6.91h1.04l.07.99c.22-.36.51-.64.88-.84.37-.21.78-.31,1.21-.31.36,0,.68.05.97.14.29.1.54.24.76.44.22.2.4.45.54.75.24-.42.56-.75.98-.98.42-.23.86-.35,1.34-.35.53,0,.99.11,1.39.32.4.21.7.54.92.97.21.43.32.99.32,1.65v4.13h-1.14v-4.01c0-.7-.14-1.22-.43-1.56-.28-.35-.68-.52-1.19-.52-.36,0-.68.09-.96.28-.28.19-.51.46-.67.82-.16.36-.25.8-.25,1.32v3.68h-1.15v-4.01c0-.7-.14-1.22-.43-1.56-.28-.35-.69-.52-1.21-.52-.35,0-.66.09-.94.28-.28.19-.5.46-.67.82-.16.36-.25.8-.25,1.32v3.68h-1.15Z"/>
      <path class="cls-3" d="M413.05,142.24c-.65,0-1.22-.15-1.72-.45-.5-.3-.89-.72-1.17-1.27-.28-.54-.43-1.18-.43-1.9s.14-1.37.42-1.91c.28-.54.67-.96,1.18-1.26.51-.3,1.09-.45,1.75-.45s1.25.15,1.72.45c.47.3.83.7,1.08,1.19.25.49.38,1.03.38,1.61v.29c0,.1,0,.21-.01.34h-5.65v-.89h4.54c-.03-.63-.24-1.12-.62-1.48-.39-.36-.88-.54-1.46-.54-.39,0-.76.09-1.09.27-.33.18-.6.44-.8.78-.2.34-.3.77-.3,1.28v.38c0,.57.1,1.04.31,1.43.21.38.48.67.81.86.33.19.69.29,1.08.29.48,0,.88-.11,1.2-.32.32-.21.54-.5.68-.87h1.14c-.11.41-.3.78-.58,1.11s-.62.59-1.02.77c-.41.19-.88.28-1.42.28Z"/>
      <path class="cls-3" d="M417.81,142.08v-6.91h1.04l.08,1.32c.16-.31.35-.58.6-.8.24-.22.54-.39.88-.51.34-.12.73-.18,1.17-.18v1.21h-.42c-.29,0-.57.04-.84.12-.27.08-.5.2-.71.38-.21.17-.37.41-.48.71-.11.3-.17.67-.17,1.1v3.57h-1.15Z"/>
      <path class="cls-3" d="M425.73,142.24c-.65,0-1.23-.15-1.75-.45s-.92-.72-1.21-1.27c-.29-.54-.44-1.17-.44-1.89s.15-1.37.44-1.91c.29-.54.7-.97,1.21-1.27s1.1-.45,1.75-.45c.82,0,1.51.21,2.06.64s.9.99,1.04,1.71h-1.18c-.09-.43-.32-.76-.67-1-.36-.24-.78-.36-1.26-.36-.39,0-.76.1-1.1.29-.34.2-.61.49-.81.88-.2.39-.3.88-.3,1.46,0,.43.06.81.18,1.15.12.33.28.61.48.83.2.22.44.39.71.5.27.11.55.17.84.17.32,0,.61-.05.88-.16.27-.11.5-.27.68-.47.18-.21.31-.45.37-.73h1.18c-.15.7-.5,1.26-1.05,1.69-.55.43-1.24.65-2.05.65Z"/>
      <path class="cls-3" d="M431.15,133.7c-.23,0-.42-.08-.57-.23s-.23-.34-.23-.57.08-.41.23-.56c.15-.14.34-.21.57-.21s.41.07.56.21c.16.14.23.33.23.56s-.08.42-.23.57c-.16.15-.34.23-.56.23ZM430.58,142.08v-6.91h1.15v6.91h-1.15Z"/>
      <path class="cls-3" d="M436.01,142.24c-.56,0-1.02-.1-1.4-.29-.38-.2-.65-.46-.84-.78-.18-.32-.27-.68-.27-1.06,0-.47.12-.86.36-1.19.24-.32.59-.57,1.03-.74.44-.17.97-.25,1.57-.25h1.82c0-.43-.07-.79-.2-1.08-.13-.29-.32-.51-.58-.65-.25-.15-.56-.22-.94-.22-.44,0-.82.11-1.14.33-.32.22-.52.54-.59.97h-1.18c.05-.49.22-.91.5-1.24.28-.33.63-.59,1.06-.77.43-.18.88-.27,1.34-.27.64,0,1.17.12,1.6.35.43.23.74.56.95.97s.32.91.32,1.47v4.28h-1.03l-.07-1.22c-.09.19-.21.37-.35.54-.14.17-.31.32-.5.44-.19.12-.41.22-.65.29-.24.07-.52.11-.83.11ZM436.19,141.27c.32,0,.61-.07.87-.2.26-.13.48-.32.67-.55.18-.23.32-.49.42-.77.1-.28.14-.58.14-.89v-.04h-1.73c-.45,0-.81.05-1.08.16s-.47.25-.59.44-.18.4-.18.64.06.46.17.65c.11.18.28.32.51.42.22.1.49.15.8.15Z"/>
      <path class="cls-3" d="M441.22,142.08v-9.88h1.15v9.88h-1.15Z"/>
      <path class="cls-3" d="M444.97,133.7c-.23,0-.42-.08-.57-.23s-.23-.34-.23-.57.08-.41.23-.56c.15-.14.34-.21.57-.21s.41.07.56.21c.16.14.23.33.23.56s-.08.42-.23.57c-.16.15-.34.23-.56.23ZM444.39,142.08v-6.91h1.15v6.91h-1.15Z"/>
      <path class="cls-3" d="M447.11,142.08v-.95l3.83-5.01h-3.76v-.96h5.08v.95l-3.84,5.01h3.91v.96h-5.21Z"/>
      <path class="cls-3" d="M456.1,142.24c-.56,0-1.02-.1-1.4-.29-.38-.2-.65-.46-.84-.78-.18-.32-.27-.68-.27-1.06,0-.47.12-.86.36-1.19.24-.32.59-.57,1.03-.74.44-.17.97-.25,1.57-.25h1.82c0-.43-.07-.79-.2-1.08-.13-.29-.32-.51-.58-.65-.25-.15-.56-.22-.94-.22-.44,0-.82.11-1.14.33-.32.22-.52.54-.59.97h-1.18c.05-.49.22-.91.5-1.24.28-.33.63-.59,1.06-.77.43-.18.88-.27,1.34-.27.64,0,1.17.12,1.6.35.43.23.74.56.95.97s.32.91.32,1.47v4.28h-1.03l-.07-1.22c-.09.19-.21.37-.35.54-.14.17-.31.32-.5.44-.19.12-.41.22-.65.29-.24.07-.52.11-.83.11ZM456.28,141.27c.32,0,.61-.07.87-.2.26-.13.48-.32.67-.55.18-.23.32-.49.42-.77.1-.28.14-.58.14-.89v-.04h-1.73c-.45,0-.81.05-1.08.16s-.47.25-.59.44-.18.4-.18.64.06.46.17.65c.11.18.28.32.51.42.22.1.49.15.8.15Z"/>
      <path class="cls-3" d="M463.84,142.08c-.41,0-.77-.06-1.07-.19s-.53-.35-.69-.65c-.16-.31-.24-.72-.24-1.24v-3.85h-1.21v-.97h1.21l.15-1.67h1v1.67h2v.97h-2v3.85c0,.43.09.72.26.87s.48.23.92.23h.74v.99h-1.07Z"/>
      <path class="cls-3" d="M467.19,133.7c-.23,0-.42-.08-.57-.23s-.23-.34-.23-.57.08-.41.23-.56c.15-.14.34-.21.57-.21s.41.07.56.21c.16.14.23.33.23.56s-.08.42-.23.57c-.16.15-.34.23-.56.23ZM466.61,142.08v-6.91h1.15v6.91h-1.15Z"/>
      <path class="cls-3" d="M472.89,142.24c-.65,0-1.23-.15-1.74-.45s-.91-.72-1.21-1.26c-.29-.54-.44-1.18-.44-1.9s.15-1.38.45-1.93c.3-.54.7-.96,1.22-1.26.52-.3,1.1-.45,1.75-.45s1.23.15,1.74.45c.51.3.91.72,1.21,1.25s.45,1.18.45,1.92-.15,1.37-.45,1.91c-.3.54-.71.97-1.22,1.26-.51.3-1.09.45-1.74.45ZM472.89,141.25c.39,0,.76-.1,1.1-.29.34-.2.61-.49.82-.88.21-.39.32-.88.32-1.45s-.1-1.07-.31-1.46c-.21-.39-.48-.68-.81-.88-.33-.2-.7-.29-1.09-.29s-.76.1-1.1.29c-.34.2-.62.49-.82.88-.21.39-.31.88-.31,1.46s.1,1.06.31,1.45c.21.39.48.69.81.88.33.2.7.29,1.09.29Z"/>
      <path class="cls-3" d="M477.93,142.08v-6.91h1.04l.05,1.21c.22-.43.53-.77.94-1.01.41-.24.87-.36,1.39-.36s1.01.11,1.4.32c.39.21.7.54.92.97.22.43.33.99.33,1.65v4.13h-1.15v-4.01c0-.7-.15-1.22-.46-1.56-.31-.35-.74-.52-1.3-.52-.38,0-.73.09-1.03.28-.3.19-.54.46-.72.81-.18.35-.27.79-.27,1.31v3.69h-1.15Z"/>
    </g>
  </g>
  <polygon class="cls-1" points="77.21 49.63 77.19 49.66 77.19 49.63 77.21 49.63"/>
  <path class="cls-2" d="M153.05,103.42l-3.21-10.37h0c-2.58-8.32-5.12-16.49-7.51-24.21h0l-5.96-19.23h-65.75l-2.68,8.65-3.29,10.58c-1.8,5.8-4.67,15.05-7.52,24.21-.44,1.44-.89,2.87-1.33,4.29-.44,1.42-.87,2.82-1.3,4.19l-.49,1.59c-.51,1.67-1.02,3.29-1.49,4.82-.48,1.54-.93,2.99-1.35,4.33h84.51c.97,3.14,1.94,6.26,2.9,9.36H48.12l-6.41,19.22h122.95c-3.65-11.78-7.64-24.63-11.61-37.44ZM77.25,93.06h0c2.84-9.13,5.71-18.37,7.52-24.2h37.43c2.4,7.71,4.93,15.89,7.51,24.2h-52.46Z"/>
  <path class="cls-3" d="M145.95,40.49h-64.59l-10.75,9.14h65.74c7.04,22.68,21.27,68.55,28.31,91.23l4.83-24.95c-7.04-22.69-16.49-52.75-23.54-75.43Z"/>
</svg>